<?xml version="1.0" encoding="UTF-8"?> <!-- Generator: Adobe Illustrator 15.1.0, SVG Export Plug-In . SVG Version: 6.00 Build 0) --> <svg xmlns="http://www.w3.org/2000/svg" xmlns:xlink="http://www.w3.org/1999/xlink" id="Layer_1" x="0px" y="0px" width="456px" height="460px" viewBox="0 0 456 460" xml:space="preserve"> <rect x="6.155" y="7.375" fill="none" stroke="#000000" stroke-miterlimit="10" width="70.866" height="215.433"></rect> <rect x="6.155" y="86.746" fill="none" stroke="#000000" stroke-miterlimit="10" width="70.866" height="56.693"></rect> <path fill="none" stroke="#000000" stroke-miterlimit="10" d="M48.693,86.746v-0.002c0-4.145,1.119-8.029,3.062-11.373L71.37,86.697 v0.049H48.693z"></path> <path fill="none" stroke="#000000" stroke-miterlimit="10" d="M48.693,143.439L48.693,143.439c0,4.146,1.119,8.029,3.062,11.373 l19.615-11.324v-0.049H48.693z"></path> <path fill="none" stroke="#000000" stroke-miterlimit="10" d="M77.057,115.092L77.057,115.092c4.146,0,8.03-1.117,11.374-3.061 L77.106,92.416h-0.049V115.092z"></path> <path fill="none" stroke="#000000" stroke-miterlimit="10" d="M77.057,115.092L77.057,115.092c4.146,0,8.03,1.119,11.374,3.062 L77.106,137.77h-0.049V115.092z"></path> <path fill="none" stroke="#000000" stroke-miterlimit="10" d="M6.155,115.092L6.155,115.092c4.146,0,8.03-1.117,11.374-3.061 L6.204,92.416H6.155V115.092z"></path> <path fill="none" stroke="#000000" stroke-miterlimit="10" d="M6.155,115.092L6.155,115.092c4.146,0,8.03,1.119,11.374,3.062 L6.204,137.77H6.155V115.092z"></path> <rect x="77.021" y="7.375" fill="none" stroke="#000000" stroke-miterlimit="10" width="340.158" height="215.433"></rect> <rect x="298.124" y="302.179" fill="none" stroke="#000000" stroke-miterlimit="10" width="119.055" height="141.732"></rect> <rect x="388.832" y="222.809" fill="none" stroke="#000000" stroke-miterlimit="10" width="28.347" height="79.37"></rect> <rect x="298.124" y="222.809" fill="none" stroke="#000000" stroke-miterlimit="10" width="90.708" height="79.37"></rect> <path fill="none" stroke="#000000" stroke-miterlimit="10" d="M213.085,222.809L213.085,222.809c0,4.146,1.117,8.03,3.061,11.374 l19.615-11.325v-0.049H213.085z"></path> <path fill="none" stroke="#000000" stroke-miterlimit="10" d="M213.085,222.809L213.085,222.809c0,4.146-1.119,8.03-3.062,11.374 l-19.615-11.325v-0.049H213.085z"></path> <path fill="none" stroke="#000000" stroke-miterlimit="10" d="M388.832,271.688L388.832,271.688c-4.146,0-8.03,1.119-11.374,3.062 l11.325,19.615h0.049V271.688z"></path> <path fill="none" stroke="#000000" stroke-miterlimit="10" d="M417.179,294.365L417.179,294.365c4.146,0,8.03-1.117,11.374-3.061 l-11.325-19.615h-0.049V294.365z"></path> <g> <line fill="#CCCCCC" x1="77.021" y1="7.375" x2="417.179" y2="222.809"></line> <g> <line fill="none" stroke="#E6E6E6" stroke-width="0.25" stroke-miterlimit="10" x1="79.571" y1="8.99" x2="414.629" y2="221.194"></line> <g> <path fill="#E6E6E6" d="M77.021,7.375c0.917,1.205,1.925,2.907,2.338,4.295l0.545-2.469l1.999-1.548 C80.472,7.874,78.503,7.69,77.021,7.375z"></path> </g> <g> <path fill="#E6E6E6" d="M417.179,222.809c-1.481-0.314-3.451-0.498-4.883-0.278l1.999-1.549l0.545-2.468 C415.254,219.902,416.261,221.604,417.179,222.809z"></path> </g> </g> </g> <g> <line fill="#CCCCCC" x1="417.179" y1="7.375" x2="77.021" y2="222.809"></line> <g> <line fill="none" stroke="#E6E6E6" stroke-width="0.25" stroke-miterlimit="10" x1="414.629" y1="8.99" x2="79.571" y2="221.194"></line> <g> <path fill="#E6E6E6" d="M417.179,7.375c-1.481,0.314-3.451,0.498-4.883,0.278l1.999,1.549l0.545,2.468 C415.254,10.282,416.261,8.58,417.179,7.375z"></path> </g> <g> <path fill="#E6E6E6" d="M77.021,222.809c0.917-1.205,1.925-2.907,2.338-4.295l0.545,2.469l1.999,1.548 C80.472,222.311,78.503,222.494,77.021,222.809z"></path> </g> </g> </g> <g> <line fill="#B3B3B3" x1="298.124" y1="302.179" x2="417.179" y2="443.911"></line> <g> <line fill="none" stroke="#E6E6E6" stroke-width="0.25" stroke-miterlimit="10" x1="300.064" y1="304.489" x2="415.238" y2="441.601"></line> <g> <path fill="#E6E6E6" d="M298.124,302.179c0.51,1.426,0.955,3.354,0.928,4.802l1.268-2.188l2.374-0.871 C301.262,303.698,299.44,302.928,298.124,302.179z"></path> </g> <g> <path fill="#E6E6E6" d="M417.179,443.911c-1.316-0.748-3.138-1.52-4.569-1.743l2.374-0.871l1.267-2.188 C416.224,440.559,416.669,442.485,417.179,443.911z"></path> </g> </g> </g> <g> <g> <line fill="none" stroke="#E6E6E6" stroke-width="0.25" stroke-miterlimit="10" x1="415.238" y1="304.489" x2="300.064" y2="441.601"></line> <g> <path fill="#E6E6E6" d="M417.179,302.179c-1.316,0.748-3.138,1.52-4.569,1.743l2.374,0.871l1.267,2.188 C416.224,305.531,416.669,303.604,417.179,302.179z"></path> </g> <g> <path fill="#E6E6E6" d="M298.124,443.911c0.51-1.426,0.955-3.354,0.928-4.802l1.268,2.188l2.374,0.871 C301.262,442.392,299.44,443.162,298.124,443.911z"></path> </g> </g> </g> <g> <path d="M324.912,258.064h1.043v3.898h0.035c0.217-0.312,0.433-0.6,0.637-0.864l2.471-3.034h1.295l-2.926,3.43l3.153,4.654h-1.235 l-2.65-3.971l-0.779,0.888v3.083h-1.043V258.064z"></path> <path d="M332.675,258.712c0,0.36-0.252,0.647-0.671,0.647c-0.385,0-0.637-0.287-0.637-0.647s0.264-0.659,0.66-0.659 C332.411,258.053,332.675,258.34,332.675,258.712z M331.5,266.148v-5.805h1.055v5.805H331.5z"></path> <path d="M335.578,258.951v1.393h1.512v0.803h-1.512v3.131c0,0.719,0.204,1.127,0.792,1.127c0.288,0,0.456-0.023,0.611-0.072 l0.048,0.804c-0.203,0.072-0.527,0.144-0.936,0.144c-0.491,0-0.887-0.168-1.139-0.443c-0.288-0.324-0.408-0.84-0.408-1.523v-3.166 h-0.899v-0.803h0.899v-1.08L335.578,258.951z"></path> <path d="M342.345,265.943c-0.276,0.133-0.888,0.336-1.667,0.336c-1.751,0-2.891-1.188-2.891-2.962c0-1.787,1.224-3.095,3.119-3.095 c0.623,0,1.175,0.156,1.463,0.312l-0.24,0.803c-0.252-0.131-0.647-0.275-1.223-0.275c-1.332,0-2.052,0.996-2.052,2.195 c0,1.343,0.864,2.17,2.015,2.17c0.6,0,0.996-0.143,1.296-0.275L342.345,265.943z"></path> <path d="M343.583,257.633h1.056v3.634h0.023c0.168-0.3,0.432-0.575,0.756-0.755c0.312-0.181,0.684-0.289,1.08-0.289 c0.779,0,2.026,0.48,2.026,2.471v3.455h-1.056v-3.334c0-0.936-0.348-1.716-1.344-1.716c-0.684,0-1.211,0.479-1.414,1.044 c-0.061,0.155-0.072,0.312-0.072,0.504v3.502h-1.056V257.633z"></path> <path d="M350.831,263.438c0.024,1.428,0.923,2.015,1.991,2.015c0.755,0,1.223-0.132,1.606-0.3l0.192,0.756 c-0.372,0.168-1.02,0.371-1.943,0.371c-1.787,0-2.854-1.188-2.854-2.938c0-1.752,1.032-3.119,2.723-3.119 c1.907,0,2.399,1.656,2.399,2.723c0,0.217-0.013,0.372-0.037,0.492H350.831z M353.926,262.682c0.012-0.66-0.276-1.703-1.464-1.703 c-1.079,0-1.535,0.972-1.619,1.703H353.926z"></path> <path d="M356.255,261.914c0-0.611-0.012-1.092-0.048-1.57h0.936l0.06,0.959h0.024c0.287-0.54,0.959-1.08,1.919-1.08 c0.804,0,2.051,0.48,2.051,2.471v3.455h-1.056v-3.347c0-0.936-0.348-1.715-1.344-1.715c-0.684,0-1.223,0.491-1.414,1.079 c-0.049,0.132-0.072,0.312-0.072,0.492v3.49h-1.056V261.914z"></path> </g> <g> <path d="M38.826,44.288c-0.468,0.18-1.403,0.444-2.495,0.444c-1.223,0-2.231-0.312-3.022-1.067 c-0.696-0.672-1.127-1.751-1.127-3.01c0-2.411,1.667-4.174,4.378-4.174c0.935,0,1.679,0.204,2.027,0.372l-0.264,0.852 c-0.432-0.204-0.971-0.348-1.787-0.348c-1.967,0-3.25,1.223-3.25,3.25c0,2.051,1.223,3.262,3.118,3.262 c0.684,0,1.151-0.096,1.392-0.216v-2.411h-1.631v-0.839h2.663V44.288z"></path> <path d="M41.553,37.212c0,0.36-0.252,0.648-0.671,0.648c-0.384,0-0.636-0.288-0.636-0.648s0.264-0.66,0.66-0.66 C41.289,36.552,41.553,36.84,41.553,37.212z M40.377,44.648v-5.805h1.056v5.805H40.377z"></path> <path d="M43.186,40.654c0-0.684-0.012-1.271-0.048-1.811h0.923l0.048,1.151h0.036c0.264-0.78,0.912-1.271,1.619-1.271 c0.108,0,0.192,0.012,0.288,0.024v0.996c-0.108-0.024-0.216-0.024-0.359-0.024c-0.744,0-1.271,0.552-1.416,1.343 c-0.024,0.144-0.036,0.324-0.036,0.492v3.094h-1.056V40.654z"></path> <path d="M47.157,36.133h1.056v8.515h-1.056V36.133z"></path> <path d="M49.845,43.581c0.324,0.192,0.875,0.408,1.403,0.408c0.756,0,1.115-0.372,1.115-0.863c0-0.504-0.3-0.768-1.067-1.056 c-1.055-0.384-1.547-0.947-1.547-1.643c0-0.936,0.768-1.703,2.003-1.703c0.587,0,1.103,0.156,1.415,0.36l-0.252,0.768 c-0.228-0.144-0.647-0.348-1.187-0.348c-0.624,0-0.959,0.36-0.959,0.792c0,0.479,0.335,0.695,1.091,0.995 c0.995,0.372,1.523,0.876,1.523,1.739c0,1.031-0.803,1.751-2.159,1.751c-0.636,0-1.223-0.168-1.631-0.408L49.845,43.581z"></path> <path d="M33.981,59.048l-2.051-8.083h1.104l0.959,4.09c0.24,1.007,0.456,2.015,0.6,2.794h0.024c0.132-0.804,0.384-1.763,0.66-2.807 l1.08-4.078h1.091l0.983,4.102c0.228,0.959,0.444,1.919,0.564,2.771h0.024c0.168-0.887,0.396-1.787,0.647-2.794l1.067-4.078H41.8 l-2.291,8.083h-1.091l-1.02-4.209c-0.252-1.032-0.42-1.823-0.528-2.639h-0.024c-0.132,0.804-0.324,1.595-0.624,2.639l-1.151,4.209 H33.981z"></path> <path d="M41.89,59.516l3.334-8.695h0.828l-3.358,8.695H41.89z"></path> <path d="M52.566,58.796c-0.372,0.192-1.151,0.384-2.135,0.384c-2.279,0-3.982-1.439-3.982-4.102c0-2.542,1.715-4.246,4.222-4.246 c0.996,0,1.643,0.216,1.919,0.36l-0.264,0.851c-0.384-0.191-0.948-0.335-1.619-0.335c-1.895,0-3.154,1.211-3.154,3.334 c0,1.991,1.139,3.25,3.094,3.25c0.648,0,1.295-0.132,1.715-0.336L52.566,58.796z"></path> </g> <g> <path d="M32.662,172.684c0.456-0.108,1.187-0.18,1.907-0.18c1.043,0,1.715,0.18,2.207,0.588c0.419,0.312,0.684,0.792,0.684,1.427 c0,0.792-0.528,1.475-1.367,1.775v0.036c0.768,0.18,1.667,0.815,1.667,2.015c0,0.696-0.276,1.235-0.696,1.619 c-0.552,0.516-1.463,0.755-2.782,0.755c-0.72,0-1.271-0.048-1.619-0.096V172.684z M33.705,175.995h0.947 c1.091,0,1.739-0.588,1.739-1.367c0-0.936-0.708-1.319-1.763-1.319c-0.48,0-0.755,0.036-0.923,0.072V175.995z M33.705,179.856 c0.216,0.036,0.503,0.048,0.875,0.048c1.079,0,2.075-0.396,2.075-1.571c0-1.091-0.947-1.559-2.087-1.559h-0.863V179.856z"></path> <path d="M44.43,177.698c0,2.146-1.499,3.082-2.89,3.082c-1.559,0-2.783-1.151-2.783-2.986c0-1.931,1.284-3.07,2.878-3.07 C43.303,174.723,44.43,175.935,44.43,177.698z M39.837,177.757c0,1.271,0.72,2.231,1.751,2.231c1.007,0,1.763-0.947,1.763-2.255 c0-0.983-0.492-2.219-1.739-2.219C40.376,175.515,39.837,176.666,39.837,177.757z"></path> <path d="M46.065,174.843l1.259,3.43c0.144,0.384,0.288,0.839,0.384,1.187h0.024c0.108-0.348,0.228-0.792,0.372-1.211l1.151-3.406 h1.115l-1.583,4.138c-0.756,1.991-1.271,2.998-1.991,3.634c-0.527,0.444-1.031,0.624-1.295,0.672l-0.264-0.875 c0.264-0.084,0.612-0.252,0.924-0.516c0.288-0.228,0.635-0.635,0.887-1.175c0.048-0.108,0.084-0.192,0.084-0.251 c0-0.06-0.024-0.144-0.084-0.276l-2.135-5.349H46.065z"></path> <path d="M51.117,179.581c0.324,0.192,0.875,0.408,1.403,0.408c0.756,0,1.115-0.372,1.115-0.863c0-0.504-0.3-0.768-1.067-1.056 c-1.055-0.384-1.547-0.947-1.547-1.643c0-0.936,0.768-1.703,2.003-1.703c0.587,0,1.104,0.156,1.415,0.36l-0.252,0.768 c-0.228-0.144-0.647-0.348-1.187-0.348c-0.624,0-0.959,0.36-0.959,0.792c0,0.479,0.335,0.695,1.091,0.995 c0.996,0.372,1.523,0.876,1.523,1.739c0,1.031-0.803,1.751-2.159,1.751c-0.636,0-1.223-0.168-1.631-0.408L51.117,179.581z"></path> <path d="M33.981,195.048l-2.051-8.083h1.104l0.959,4.09c0.24,1.007,0.456,2.015,0.6,2.794h0.024 c0.132-0.804,0.384-1.763,0.66-2.807l1.08-4.078h1.091l0.983,4.102c0.228,0.959,0.444,1.919,0.564,2.771h0.024 c0.168-0.887,0.396-1.787,0.647-2.794l1.067-4.078H41.8l-2.291,8.083h-1.091l-1.02-4.209c-0.252-1.032-0.42-1.823-0.528-2.639 h-0.024c-0.132,0.804-0.324,1.595-0.624,2.639l-1.151,4.209H33.981z"></path> <path d="M41.89,195.516l3.334-8.695h0.828l-3.358,8.695H41.89z"></path> <path d="M52.566,194.796c-0.372,0.192-1.151,0.384-2.135,0.384c-2.279,0-3.982-1.439-3.982-4.102c0-2.542,1.715-4.246,4.222-4.246 c0.996,0,1.643,0.216,1.919,0.36l-0.264,0.851c-0.384-0.191-0.948-0.335-1.619-0.335c-1.895,0-3.154,1.211-3.154,3.334 c0,1.991,1.139,3.25,3.094,3.25c0.648,0,1.295-0.132,1.715-0.336L52.566,194.796z"></path> </g> <g> <path d="M191.399,239.916h4.354v0.876h-3.298v2.687h3.046v0.863h-3.046V248h-1.056V239.916z"></path> <path d="M198.083,240.564c0,0.359-0.252,0.647-0.671,0.647c-0.384,0-0.636-0.288-0.636-0.647c0-0.36,0.264-0.66,0.66-0.66 C197.819,239.904,198.083,240.192,198.083,240.564z M196.908,248v-5.805h1.056V248H196.908z"></path> <path d="M199.715,244.006c0-0.684-0.012-1.271-0.048-1.811h0.923l0.048,1.151h0.036c0.264-0.779,0.912-1.271,1.619-1.271 c0.108,0,0.192,0.012,0.288,0.024v0.995c-0.108-0.024-0.216-0.024-0.36-0.024c-0.744,0-1.271,0.552-1.416,1.344 c-0.024,0.144-0.036,0.324-0.036,0.491V248h-1.056V244.006z"></path> <path d="M204.107,245.289c0.024,1.428,0.923,2.016,1.991,2.016c0.755,0,1.223-0.132,1.607-0.3l0.192,0.755 c-0.372,0.168-1.02,0.372-1.943,0.372c-1.787,0-2.854-1.188-2.854-2.938s1.032-3.118,2.723-3.118c1.907,0,2.398,1.655,2.398,2.723 c0,0.216-0.012,0.372-0.036,0.491H204.107z M207.201,244.534c0.013-0.66-0.275-1.703-1.463-1.703c-1.079,0-1.535,0.972-1.619,1.703 H207.201z"></path> <path d="M216.285,244.21h-3.13v2.914h3.502V248H212.1v-8.084h4.378v0.876h-3.322v2.555h3.13V244.21z"></path> <path d="M218.471,242.195l0.827,1.247c0.229,0.324,0.408,0.611,0.601,0.936h0.023c0.192-0.336,0.384-0.636,0.588-0.947l0.804-1.235 h1.151l-1.979,2.807l2.027,2.998h-1.188l-0.863-1.308c-0.229-0.336-0.42-0.659-0.624-1.007h-0.023 c-0.192,0.348-0.384,0.659-0.612,1.007L218.363,248h-1.164l2.063-2.962l-1.968-2.843H218.471z"></path> <path d="M224.711,240.564c0,0.359-0.252,0.647-0.672,0.647c-0.384,0-0.636-0.288-0.636-0.647c0-0.36,0.265-0.66,0.66-0.66 C224.447,239.904,224.711,240.192,224.711,240.564z M223.536,248v-5.805h1.055V248H223.536z"></path> <path d="M227.614,240.804v1.392h1.512v0.804h-1.512v3.13c0,0.72,0.204,1.128,0.792,1.128c0.288,0,0.456-0.024,0.611-0.072 l0.048,0.804c-0.203,0.071-0.527,0.144-0.936,0.144c-0.491,0-0.887-0.168-1.139-0.443c-0.288-0.324-0.408-0.84-0.408-1.523v-3.166 h-0.899v-0.804h0.899v-1.079L227.614,240.804z"></path> </g> <path fill="none" stroke="#000000" stroke-miterlimit="10" d="M391.668,443.911L391.668,443.911c0,4.146,1.117,8.03,3.061,11.374 l19.615-11.325v-0.049H391.668z"></path> <g> <path d="M433.399,274.943h4.354v0.876h-3.298v2.687h3.047v0.863h-3.047v3.658h-1.056V274.943z"></path> <path d="M440.083,275.592c0,0.359-0.252,0.647-0.671,0.647c-0.385,0-0.637-0.288-0.637-0.647c0-0.36,0.264-0.66,0.66-0.66 C439.819,274.932,440.083,275.22,440.083,275.592z M438.908,283.027v-5.805h1.055v5.805H438.908z"></path> <path d="M441.715,279.033c0-0.684-0.012-1.271-0.047-1.811h0.923l0.048,1.151h0.036c0.264-0.779,0.911-1.271,1.619-1.271 c0.108,0,0.192,0.012,0.288,0.024v0.995c-0.108-0.024-0.217-0.024-0.359-0.024c-0.744,0-1.271,0.552-1.416,1.344 c-0.023,0.144-0.035,0.324-0.035,0.491v3.095h-1.057V279.033z"></path> <path d="M446.107,280.316c0.023,1.428,0.924,2.016,1.99,2.016c0.756,0,1.224-0.132,1.607-0.3l0.192,0.755 c-0.372,0.168-1.02,0.372-1.943,0.372c-1.787,0-2.854-1.188-2.854-2.938s1.031-3.118,2.723-3.118c1.907,0,2.398,1.655,2.398,2.723 c0,0.216-0.012,0.372-0.036,0.491H446.107z M449.201,279.562c0.013-0.66-0.275-1.703-1.463-1.703c-1.079,0-1.535,0.972-1.619,1.703 H449.201z"></path> <path d="M437.585,293.638h-3.13v2.914h3.502v0.876h-4.558v-8.084h4.378v0.876h-3.322v2.555h3.13V293.638z"></path> <path d="M439.771,291.623l0.827,1.247c0.228,0.324,0.407,0.611,0.6,0.936h0.024c0.191-0.336,0.383-0.636,0.588-0.947l0.803-1.235 h1.151l-1.979,2.807l2.026,2.998h-1.188l-0.863-1.308c-0.228-0.336-0.42-0.659-0.623-1.007h-0.024 c-0.192,0.348-0.384,0.659-0.612,1.007l-0.839,1.308H438.5l2.062-2.962l-1.967-2.843H439.771z"></path> <path d="M446.011,289.992c0,0.359-0.252,0.647-0.671,0.647c-0.385,0-0.637-0.288-0.637-0.647c0-0.36,0.264-0.66,0.66-0.66 C445.747,289.332,446.011,289.62,446.011,289.992z M444.836,297.428v-5.805h1.055v5.805H444.836z"></path> <path d="M448.914,290.231v1.392h1.512v0.804h-1.512v3.13c0,0.72,0.204,1.128,0.792,1.128c0.288,0,0.456-0.024,0.611-0.072 l0.048,0.804c-0.203,0.071-0.527,0.144-0.936,0.144c-0.491,0-0.887-0.168-1.139-0.443c-0.288-0.324-0.408-0.84-0.408-1.523v-3.166 h-0.899v-0.804h0.899v-1.079L448.914,290.231z"></path> </g> <g> <path d="M222.5,111.907h-0.024l-1.355,0.732l-0.204-0.804l1.703-0.912h0.9v7.796h-1.02V111.907z"></path> <path d="M226.365,118.719v-0.647l0.828-0.804c1.991-1.895,2.902-2.902,2.902-4.078c0-0.792-0.372-1.523-1.535-1.523 c-0.708,0-1.295,0.36-1.655,0.66l-0.336-0.744c0.528-0.444,1.307-0.792,2.195-0.792c1.679,0,2.387,1.151,2.387,2.267 c0,1.439-1.043,2.603-2.687,4.186l-0.612,0.576v0.024h3.49v0.875H226.365z"></path> <path d="M232.857,114.485c0-0.611-0.024-1.091-0.049-1.571h0.924l0.048,0.947h0.036c0.324-0.552,0.863-1.067,1.835-1.067 c0.78,0,1.38,0.48,1.632,1.164h0.023c0.18-0.336,0.42-0.576,0.66-0.756c0.348-0.264,0.719-0.408,1.271-0.408 c0.779,0,1.918,0.504,1.918,2.519v3.406h-1.031v-3.274c0-1.127-0.42-1.787-1.26-1.787c-0.611,0-1.066,0.443-1.26,0.947 c-0.047,0.156-0.084,0.336-0.084,0.528v3.586h-1.031v-3.478c0-0.923-0.407-1.583-1.211-1.583c-0.647,0-1.139,0.527-1.307,1.055 c-0.061,0.144-0.084,0.336-0.084,0.516v3.49h-1.031V114.485z"></path> <path d="M245.9,112.915l0.828,1.247c0.229,0.324,0.408,0.612,0.6,0.936h0.023c0.193-0.336,0.385-0.636,0.588-0.947l0.805-1.235 h1.15l-1.979,2.806l2.027,2.999h-1.188l-0.863-1.307c-0.229-0.336-0.42-0.66-0.625-1.008h-0.023 c-0.191,0.348-0.383,0.66-0.611,1.008l-0.84,1.307h-1.164l2.064-2.962l-1.969-2.842H245.9z"></path> <path d="M258.234,110.923v0.696l-3.395,7.1h-1.092l3.383-6.896v-0.024h-3.814v-0.875H258.234z"></path> <path d="M259.414,118.096c0-0.432,0.299-0.756,0.719-0.756s0.707,0.312,0.707,0.756c0,0.432-0.287,0.755-0.73,0.755 C259.701,118.851,259.414,118.527,259.414,118.096z"></path> <path d="M266.262,111.667c-0.215-0.012-0.492,0.012-0.791,0.06c-1.668,0.264-2.531,1.463-2.711,2.758h0.023 c0.373-0.503,1.033-0.911,1.896-0.911c1.379,0,2.35,1.007,2.35,2.519c0,1.439-0.971,2.758-2.602,2.758 c-1.656,0-2.746-1.295-2.746-3.322c0-1.535,0.539-2.746,1.318-3.514c0.648-0.636,1.512-1.032,2.494-1.151 c0.312-0.048,0.576-0.06,0.768-0.06V111.667z M265.963,116.165c0-1.115-0.637-1.787-1.607-1.787c-0.637,0-1.236,0.384-1.523,0.959 c-0.061,0.12-0.107,0.264-0.107,0.456c0.012,1.283,0.611,2.243,1.727,2.243C265.352,118.036,265.963,117.28,265.963,116.165z"></path> <path d="M268.305,114.485c0-0.611-0.023-1.091-0.049-1.571h0.924l0.049,0.947h0.035c0.324-0.552,0.863-1.067,1.836-1.067 c0.779,0,1.379,0.48,1.631,1.164h0.023c0.18-0.336,0.42-0.576,0.66-0.756c0.348-0.264,0.719-0.408,1.271-0.408 c0.779,0,1.918,0.504,1.918,2.519v3.406h-1.031v-3.274c0-1.127-0.42-1.787-1.26-1.787c-0.611,0-1.066,0.443-1.258,0.947 c-0.049,0.156-0.084,0.336-0.084,0.528v3.586h-1.031v-3.478c0-0.923-0.408-1.583-1.213-1.583c-0.646,0-1.139,0.527-1.307,1.055 c-0.061,0.144-0.084,0.336-0.084,0.516v3.49h-1.031V114.485z"></path> </g> <g> <path d="M341.363,369.764h-2.975l-0.3,2.004c0.18-0.024,0.348-0.037,0.636-0.037c0.611,0,1.199,0.121,1.68,0.42 c0.611,0.336,1.115,1.02,1.115,1.991c0,1.523-1.212,2.663-2.902,2.663c-0.852,0-1.56-0.24-1.943-0.48l0.264-0.803 c0.324,0.191,0.959,0.432,1.68,0.432c0.982,0,1.846-0.648,1.834-1.691c0-1.008-0.684-1.715-2.23-1.715 c-0.455,0-0.803,0.035-1.092,0.072l0.504-3.742h3.73V369.764z"></path> <path d="M343.201,372.438c0-0.611-0.023-1.091-0.048-1.571h0.923l0.049,0.947h0.035c0.324-0.551,0.864-1.066,1.836-1.066 c0.779,0,1.379,0.479,1.631,1.163h0.023c0.18-0.336,0.42-0.575,0.66-0.756c0.348-0.264,0.719-0.407,1.271-0.407 c0.779,0,1.918,0.504,1.918,2.518v3.406h-1.031v-3.273c0-1.127-0.42-1.787-1.259-1.787c-0.612,0-1.067,0.443-1.259,0.947 c-0.049,0.156-0.084,0.336-0.084,0.527v3.586h-1.031v-3.478c0-0.923-0.408-1.583-1.212-1.583c-0.647,0-1.14,0.527-1.308,1.055 c-0.06,0.145-0.084,0.336-0.084,0.516v3.49h-1.031V372.438z"></path> <path d="M356.244,370.867l0.828,1.248c0.229,0.323,0.408,0.611,0.6,0.936h0.023c0.193-0.336,0.385-0.637,0.588-0.947l0.805-1.236 h1.15l-1.979,2.807l2.027,2.998H359.1l-0.863-1.307c-0.229-0.336-0.42-0.66-0.625-1.008h-0.023 c-0.191,0.348-0.383,0.66-0.611,1.008l-0.84,1.307h-1.164l2.064-2.962l-1.969-2.843H356.244z"></path> <path d="M366.779,376.672v-2.135h-3.623v-0.684l3.479-4.977h1.139v4.846h1.092v0.814h-1.092v2.135H366.779z M366.779,373.723 v-2.604c0-0.408,0.012-0.815,0.035-1.223h-0.035c-0.24,0.455-0.432,0.791-0.648,1.15l-1.906,2.65v0.025H366.779z"></path> <path d="M369.758,376.049c0-0.432,0.299-0.756,0.719-0.756s0.707,0.312,0.707,0.756c0,0.432-0.287,0.756-0.73,0.756 C370.045,376.805,369.758,376.48,369.758,376.049z"></path> <path d="M372.156,376.672v-0.646l0.828-0.805c1.99-1.895,2.902-2.902,2.902-4.077c0-0.792-0.373-1.523-1.535-1.523 c-0.707,0-1.295,0.36-1.656,0.659l-0.336-0.743c0.529-0.444,1.309-0.792,2.195-0.792c1.68,0,2.387,1.152,2.387,2.268 c0,1.439-1.043,2.603-2.686,4.186l-0.611,0.576v0.023h3.488v0.875H372.156z"></path> <path d="M378.648,372.438c0-0.611-0.023-1.091-0.049-1.571h0.924l0.049,0.947h0.035c0.324-0.551,0.863-1.066,1.836-1.066 c0.779,0,1.379,0.479,1.631,1.163h0.023c0.18-0.336,0.42-0.575,0.66-0.756c0.348-0.264,0.719-0.407,1.271-0.407 c0.779,0,1.918,0.504,1.918,2.518v3.406h-1.031v-3.273c0-1.127-0.42-1.787-1.26-1.787c-0.611,0-1.066,0.443-1.258,0.947 c-0.049,0.156-0.084,0.336-0.084,0.527v3.586h-1.031v-3.478c0-0.923-0.408-1.583-1.213-1.583c-0.646,0-1.139,0.527-1.307,1.055 c-0.061,0.145-0.084,0.336-0.084,0.516v3.49h-1.031V372.438z"></path> </g> </svg> 