<?xml version="1.0" encoding="UTF-8"?> <!-- Generator: Adobe Illustrator 15.1.0, SVG Export Plug-In . SVG Version: 6.00 Build 0) --> <svg xmlns="http://www.w3.org/2000/svg" xmlns:xlink="http://www.w3.org/1999/xlink" id="Layer_1" x="0px" y="0px" width="418px" height="182px" viewBox="0 0 418 182" xml:space="preserve"> <rect x="39.299" y="6.898" fill="none" stroke="#000000" stroke-miterlimit="10" width="374.173" height="170.079"></rect> <rect x="39.299" y="6.898" fill="none" stroke="#000000" stroke-miterlimit="10" width="73.701" height="90.708"></rect> <rect x="39.299" y="125.953" fill="none" stroke="#000000" stroke-miterlimit="10" width="73.701" height="51.023"></rect> <path fill="none" stroke="#000000" stroke-miterlimit="10" d="M39.299,100.441L39.299,100.441c-4.146,0-8.03,1.119-11.374,3.062 l11.325,19.615h0.048V100.441z"></path> <path fill="none" stroke="#000000" stroke-miterlimit="10" d="M113,29.575L113,29.575c-4.146,0-8.03,1.119-11.374,3.062 l11.325,19.615H113V29.575z"></path> <path fill="none" stroke="#000000" stroke-miterlimit="10" d="M76.15,125.953L76.15,125.953c0,4.146,1.119,8.029,3.062,11.373 l19.615-11.324v-0.049H76.15z"></path> <g> <path d="M66.981,156.648l-2.051-8.084h1.104l0.959,4.09c0.24,1.008,0.456,2.015,0.6,2.795h0.024 c0.132-0.805,0.384-1.764,0.66-2.807l1.08-4.078h1.091l0.983,4.102c0.228,0.959,0.444,1.919,0.564,2.771h0.024 c0.168-0.888,0.396-1.787,0.647-2.794l1.067-4.078H74.8l-2.291,8.084h-1.091l-1.02-4.21c-0.252-1.032-0.42-1.823-0.528-2.639 h-0.024c-0.132,0.804-0.324,1.595-0.624,2.639l-1.151,4.21H66.981z"></path> <path d="M74.89,157.115l3.334-8.695h0.828l-3.358,8.695H74.89z"></path> <path d="M85.566,156.396c-0.372,0.191-1.151,0.383-2.135,0.383c-2.279,0-3.982-1.438-3.982-4.102c0-2.542,1.715-4.245,4.222-4.245 c0.996,0,1.643,0.216,1.919,0.36l-0.264,0.852c-0.384-0.193-0.948-0.336-1.619-0.336c-1.895,0-3.154,1.211-3.154,3.334 c0,1.99,1.139,3.25,3.094,3.25c0.648,0,1.295-0.133,1.715-0.336L85.566,156.396z"></path> </g> <g> <path d="M59.912,48.564h1.043v3.898h0.036c0.216-0.312,0.432-0.6,0.636-0.864l2.471-3.034h1.295l-2.926,3.43l3.154,4.653h-1.235 l-2.651-3.97l-0.779,0.887v3.083h-1.043V48.564z"></path> <path d="M67.675,49.212c0,0.36-0.252,0.648-0.671,0.648c-0.384,0-0.636-0.288-0.636-0.648s0.264-0.66,0.66-0.66 C67.411,48.552,67.675,48.84,67.675,49.212z M66.5,56.648v-5.805h1.056v5.805H66.5z"></path> <path d="M70.579,49.452v1.392h1.511v0.803h-1.511v3.13c0,0.72,0.204,1.127,0.792,1.127c0.288,0,0.456-0.024,0.611-0.072 l0.048,0.803c-0.204,0.072-0.528,0.144-0.936,0.144c-0.492,0-0.888-0.168-1.14-0.444c-0.288-0.324-0.408-0.839-0.408-1.523v-3.167 h-0.899v-0.803h0.899v-1.08L70.579,49.452z"></path> <path d="M77.345,56.444c-0.276,0.132-0.888,0.336-1.667,0.336c-1.751,0-2.891-1.188-2.891-2.962c0-1.787,1.224-3.094,3.119-3.094 c0.624,0,1.175,0.156,1.463,0.312l-0.24,0.803c-0.252-0.132-0.647-0.275-1.223-0.275c-1.332,0-2.051,0.995-2.051,2.194 c0,1.343,0.864,2.171,2.015,2.171c0.6,0,0.996-0.144,1.295-0.276L77.345,56.444z"></path> <path d="M78.583,48.133h1.056v3.634h0.024c0.168-0.3,0.432-0.576,0.755-0.755c0.312-0.18,0.684-0.288,1.08-0.288 c0.779,0,2.027,0.48,2.027,2.471v3.454h-1.056v-3.334c0-0.936-0.348-1.715-1.343-1.715c-0.684,0-1.211,0.48-1.415,1.043 c-0.06,0.156-0.072,0.312-0.072,0.504v3.502h-1.056V48.133z"></path> <path d="M85.831,53.938c0.024,1.427,0.923,2.015,1.991,2.015c0.755,0,1.223-0.132,1.607-0.3l0.192,0.756 c-0.372,0.168-1.019,0.372-1.943,0.372c-1.787,0-2.854-1.188-2.854-2.938s1.032-3.118,2.723-3.118c1.907,0,2.399,1.655,2.399,2.723 c0,0.216-0.012,0.372-0.036,0.492H85.831z M88.925,53.182c0.012-0.66-0.276-1.703-1.463-1.703c-1.079,0-1.535,0.971-1.619,1.703 H88.925z"></path> <path d="M91.255,52.414c0-0.611-0.012-1.091-0.048-1.571h0.936l0.06,0.959h0.024c0.288-0.54,0.959-1.08,1.919-1.08 c0.803,0,2.051,0.48,2.051,2.471v3.454h-1.056v-3.346c0-0.936-0.348-1.715-1.343-1.715c-0.684,0-1.223,0.492-1.415,1.079 c-0.048,0.132-0.072,0.312-0.072,0.492v3.49h-1.056V52.414z"></path> </g> <path fill="none" stroke="#000000" stroke-miterlimit="10" d="M168.685,176.977L168.685,176.977c0-4.146,1.119-8.029,3.062-11.373 l19.615,11.324v0.049H168.685z"></path> <rect x="396.465" y="6.898" fill="none" stroke="#000000" stroke-miterlimit="10" width="17.008" height="170.079"></rect> <g> <line fill="#B3B3B3" x1="113" y1="6.898" x2="396.465" y2="176.977"></line> <g> <line fill="none" stroke="#E6E6E6" stroke-width="0.25" stroke-miterlimit="10" x1="115.587" y1="8.451" x2="393.877" y2="175.424"></line> <g> <path fill="#E6E6E6" d="M113,6.898c0.946,1.182,1.995,2.859,2.441,4.238l0.486-2.481l1.96-1.596 C116.461,7.312,114.488,7.177,113,6.898z"></path> </g> <g> <path fill="#E6E6E6" d="M396.465,176.977c-1.488-0.279-3.462-0.414-4.888-0.16l1.961-1.596l0.485-2.481 C394.47,174.117,395.519,175.795,396.465,176.977z"></path> </g> </g> </g> <g> <line fill="#B3B3B3" x1="396.466" y1="6.898" x2="113" y2="176.977"></line> <g> <line fill="none" stroke="#E6E6E6" stroke-width="0.25" stroke-miterlimit="10" x1="393.878" y1="8.451" x2="115.587" y2="175.424"></line> <g> <path fill="#E6E6E6" d="M396.466,6.898c-1.488,0.279-3.462,0.415-4.888,0.16l1.961,1.597l0.485,2.481 C394.471,9.757,395.52,8.08,396.466,6.898z"></path> </g> <g> <path fill="#E6E6E6" d="M113,176.977c0.946-1.182,1.995-2.859,2.441-4.238l0.486,2.482l1.96,1.596 C116.461,176.562,114.488,176.697,113,176.977z"></path> </g> </g> </g> <g> <path d="M5.899,98.416h4.354v0.876H6.955v2.687h3.046v0.863H6.955v3.658H5.899V98.416z"></path> <path d="M12.583,99.064c0,0.359-0.252,0.647-0.671,0.647c-0.384,0-0.636-0.288-0.636-0.647c0-0.36,0.264-0.66,0.66-0.66 C12.319,98.404,12.583,98.692,12.583,99.064z M11.408,106.5v-5.805h1.056v5.805H11.408z"></path> <path d="M14.215,102.506c0-0.684-0.012-1.271-0.048-1.811h0.923l0.048,1.151h0.036c0.264-0.779,0.912-1.271,1.619-1.271 c0.108,0,0.192,0.012,0.288,0.024v0.995c-0.108-0.024-0.216-0.024-0.36-0.024c-0.744,0-1.271,0.552-1.416,1.344 c-0.024,0.144-0.036,0.324-0.036,0.491v3.095h-1.056V102.506z"></path> <path d="M18.607,103.789c0.024,1.428,0.923,2.016,1.991,2.016c0.755,0,1.223-0.132,1.607-0.3l0.192,0.755 c-0.372,0.168-1.02,0.372-1.943,0.372c-1.787,0-2.854-1.188-2.854-2.938s1.032-3.118,2.723-3.118c1.907,0,2.398,1.655,2.398,2.723 c0,0.216-0.012,0.372-0.036,0.491H18.607z M21.701,103.034c0.013-0.66-0.275-1.703-1.463-1.703c-1.079,0-1.535,0.972-1.619,1.703 H21.701z"></path> <path d="M10.085,117.11h-3.13v2.914h3.502v0.876H5.899v-8.084h4.378v0.876H6.955v2.555h3.13V117.11z"></path> <path d="M12.271,115.096l0.828,1.247c0.228,0.324,0.408,0.611,0.6,0.936h0.024c0.192-0.336,0.384-0.636,0.588-0.947l0.803-1.235 h1.151l-1.979,2.807l2.027,2.998h-1.188l-0.864-1.308c-0.228-0.336-0.419-0.659-0.624-1.007h-0.024 c-0.192,0.348-0.384,0.659-0.612,1.007l-0.839,1.308H11l2.062-2.962l-1.967-2.843H12.271z"></path> <path d="M18.511,113.465c0,0.359-0.252,0.647-0.671,0.647c-0.384,0-0.636-0.288-0.636-0.647c0-0.36,0.264-0.66,0.66-0.66 C18.247,112.805,18.511,113.093,18.511,113.465z M17.335,120.9v-5.805h1.056v5.805H17.335z"></path> <path d="M21.415,113.704v1.392h1.511v0.804h-1.511v3.13c0,0.72,0.204,1.128,0.792,1.128c0.288,0,0.456-0.024,0.611-0.072 l0.048,0.804c-0.203,0.071-0.527,0.144-0.936,0.144c-0.491,0-0.887-0.168-1.139-0.443c-0.288-0.324-0.408-0.84-0.408-1.523v-3.166 h-0.899v-0.804h0.899v-1.079L21.415,113.704z"></path> </g> <g> <path d="M232.498,88.752h-0.024l-1.355,0.732l-0.204-0.804l1.703-0.912h0.9v7.795h-1.02V88.752z"></path> <path d="M241.556,91.583c0,2.651-0.995,4.114-2.71,4.114c-1.523,0-2.567-1.428-2.592-4.006c0-2.626,1.141-4.054,2.723-4.054 C240.607,87.637,241.556,89.101,241.556,91.583z M237.322,91.703c0,2.027,0.623,3.178,1.583,3.178c1.067,0,1.583-1.259,1.583-3.25 c0-1.919-0.48-3.179-1.583-3.179C237.994,88.453,237.322,89.58,237.322,91.703z"></path> <path d="M242.854,91.331c0-0.611-0.023-1.091-0.047-1.571h0.923l0.048,0.947h0.036c0.323-0.552,0.864-1.067,1.835-1.067 c0.779,0,1.379,0.48,1.631,1.164h0.023c0.182-0.336,0.42-0.576,0.66-0.756c0.348-0.264,0.721-0.408,1.271-0.408 c0.779,0,1.92,0.504,1.92,2.519v3.406h-1.033v-3.274c0-1.127-0.418-1.787-1.258-1.787c-0.611,0-1.068,0.443-1.26,0.947 c-0.049,0.156-0.084,0.336-0.084,0.528v3.585h-1.031v-3.478c0-0.923-0.408-1.583-1.211-1.583c-0.648,0-1.141,0.527-1.309,1.055 c-0.059,0.144-0.084,0.336-0.084,0.516v3.49h-1.031V91.331z"></path> <path d="M255.898,89.76l0.826,1.247c0.229,0.324,0.408,0.612,0.602,0.936h0.023c0.191-0.336,0.383-0.636,0.588-0.947l0.803-1.235 h1.152l-1.98,2.806l2.027,2.998h-1.188l-0.863-1.307c-0.229-0.336-0.42-0.66-0.623-1.008h-0.023 c-0.193,0.348-0.385,0.66-0.613,1.008l-0.838,1.307h-1.164l2.062-2.962l-1.967-2.842H255.898z"></path> <path d="M267.619,88.513c-0.215-0.012-0.492,0.012-0.791,0.06c-1.668,0.264-2.531,1.463-2.711,2.758h0.023 c0.373-0.503,1.033-0.911,1.896-0.911c1.379,0,2.35,1.007,2.35,2.519c0,1.438-0.971,2.759-2.602,2.759 c-1.656,0-2.746-1.296-2.746-3.323c0-1.535,0.539-2.746,1.318-3.514c0.648-0.636,1.512-1.032,2.494-1.151 c0.312-0.048,0.576-0.06,0.768-0.06V88.513z M267.32,93.01c0-1.115-0.637-1.787-1.607-1.787c-0.637,0-1.236,0.384-1.523,0.959 c-0.061,0.12-0.107,0.264-0.107,0.456c0.012,1.283,0.611,2.242,1.727,2.242C266.709,94.881,267.32,94.125,267.32,93.01z"></path> <path d="M269.662,91.331c0-0.611-0.023-1.091-0.049-1.571h0.924l0.049,0.947h0.035c0.324-0.552,0.863-1.067,1.836-1.067 c0.779,0,1.379,0.48,1.631,1.164h0.023c0.18-0.336,0.42-0.576,0.66-0.756c0.348-0.264,0.719-0.408,1.271-0.408 c0.779,0,1.918,0.504,1.918,2.519v3.406h-1.031v-3.274c0-1.127-0.42-1.787-1.26-1.787c-0.611,0-1.066,0.443-1.258,0.947 c-0.049,0.156-0.084,0.336-0.084,0.528v3.585h-1.031v-3.478c0-0.923-0.408-1.583-1.213-1.583c-0.646,0-1.139,0.527-1.307,1.055 c-0.061,0.144-0.084,0.336-0.084,0.516v3.49h-1.031V91.331z"></path> </g> </svg> 